<?xml version="1.0" encoding="UTF-8"?>
<svg id="repas" xmlns="http://www.w3.org/2000/svg" viewBox="0 0 1312.06 1312.06">
  <defs>
    <style>
      .cls-1 {
        stroke: #fffaee;
      }

      .cls-1, .cls-2, .cls-3, .cls-4 {
        stroke-linecap: round;
        stroke-linejoin: round;
        stroke-width: 15px;
      }

      .cls-1, .cls-5 {
        fill: #f6e7ca;
      }

      .cls-2 {
        stroke: #f8ad54;
      }

      .cls-2, .cls-6 {
        fill: none;
      }

      .cls-6, .cls-5 {
        stroke: #1a2325;
        stroke-width: 50px;
      }

      .cls-6, .cls-5, .cls-7 {
        stroke-miterlimit: 10;
      }

      .cls-3 {
        fill: #fffaee;
        stroke: #ded5c7;
      }

      .cls-7 {
        fill: #ed6b4e;
        stroke: #d53016;
        stroke-width: 20px;
      }

      .cls-4 {
        fill: #76b72a;
        stroke: #5a7131;
      }
    </style>
  </defs>
  <g id="repas02">
    <g>
      <circle class="cls-5" cx="656.03" cy="656.03" r="631.03"/>
      <g>
        <circle class="cls-1" cx="564.92" cy="251.57" r="194.4"/>
        <ellipse class="cls-1" cx="564.92" cy="251.57" rx="138.8" ry="134.78"/>
        <ellipse class="cls-1" cx="564.92" cy="251.57" rx="79.91" ry="77.6"/>
      </g>
      <g>
        <circle class="cls-1" cx="993.16" cy="316.73" r="158.41"/>
        <ellipse class="cls-1" cx="993.16" cy="316.73" rx="113.1" ry="109.83"/>
        <ellipse class="cls-1" cx="993.16" cy="316.73" rx="65.12" ry="63.24"/>
      </g>
      <g>
        <circle class="cls-1" cx="1061.29" cy="564.18" r="221.55"/>
        <ellipse class="cls-1" cx="1061.29" cy="564.18" rx="158.18" ry="153.61"/>
        <ellipse class="cls-1" cx="1061.29" cy="564.18" rx="91.07" ry="88.44"/>
        <g>
          <circle class="cls-1" cx="551.16" cy="1104.69" r="168.49"/>
          <ellipse class="cls-1" cx="551.16" cy="1104.69" rx="120.3" ry="116.82"/>
          <ellipse class="cls-1" cx="551.16" cy="1104.69" rx="69.26" ry="67.26"/>
        </g>
        <g>
          <circle class="cls-1" cx="426.37" cy="1016.77" r="194.05"/>
          <ellipse class="cls-1" cx="426.37" cy="1016.77" rx="138.55" ry="134.54"/>
          <ellipse class="cls-1" cx="426.37" cy="1016.77" rx="79.77" ry="77.46"/>
        </g>
      </g>
      <g>
        <circle class="cls-1" cx="747.01" cy="1053.02" r="221.55"/>
        <ellipse class="cls-1" cx="747.01" cy="1053.02" rx="158.18" ry="153.61"/>
        <ellipse class="cls-1" cx="747.01" cy="1053.02" rx="91.07" ry="88.44"/>
      </g>
      <g>
        <circle class="cls-1" cx="373.08" cy="388.79" r="221.55"/>
        <ellipse class="cls-1" cx="373.08" cy="388.79" rx="158.18" ry="153.61"/>
        <ellipse class="cls-1" cx="373.08" cy="388.79" rx="91.07" ry="88.44"/>
      </g>
      <g>
        <circle class="cls-1" cx="834.75" cy="801.68" r="168.49"/>
        <ellipse class="cls-1" cx="834.75" cy="801.68" rx="120.3" ry="116.82"/>
        <ellipse class="cls-1" cx="834.75" cy="801.68" rx="69.26" ry="67.26"/>
      </g>
      <g>
        <circle class="cls-1" cx="441.68" cy="684.18" r="168.49"/>
        <ellipse class="cls-1" cx="441.68" cy="684.18" rx="120.3" ry="116.82"/>
        <ellipse class="cls-1" cx="441.68" cy="684.18" rx="69.26" ry="67.26"/>
      </g>
      <g>
        <circle class="cls-1" cx="719.65" cy="530.57" r="221.55"/>
        <ellipse class="cls-1" cx="719.65" cy="530.57" rx="158.18" ry="153.61"/>
        <ellipse class="cls-1" cx="719.65" cy="530.57" rx="91.07" ry="88.44"/>
      </g>
      <g>
        <circle class="cls-1" cx="1094.42" cy="848.28" r="168.49"/>
        <ellipse class="cls-1" cx="1094.42" cy="848.28" rx="120.3" ry="116.82"/>
        <ellipse class="cls-1" cx="1094.42" cy="848.28" rx="69.26" ry="67.26"/>
      </g>
      <g>
        <circle class="cls-1" cx="924.66" cy="1037.43" r="168.49"/>
        <ellipse class="cls-1" cx="924.66" cy="1037.43" rx="120.3" ry="116.82"/>
        <ellipse class="cls-1" cx="924.66" cy="1037.43" rx="69.26" ry="67.26"/>
      </g>
      <g>
        <circle class="cls-1" cx="219.99" cy="781.02" r="168.49"/>
        <ellipse class="cls-1" cx="219.99" cy="781.02" rx="120.3" ry="116.82"/>
        <ellipse class="cls-1" cx="219.99" cy="781.02" rx="69.26" ry="67.26"/>
      </g>
      <g>
        <circle class="cls-1" cx="773.65" cy="213.92" r="168.49"/>
        <ellipse class="cls-1" cx="773.65" cy="213.92" rx="120.3" ry="116.82"/>
        <ellipse class="cls-1" cx="773.65" cy="213.92" rx="69.26" ry="67.26"/>
      </g>
      <g>
        <circle class="cls-1" cx="219.99" cy="542.4" r="168.49"/>
        <ellipse class="cls-1" cx="219.99" cy="542.4" rx="120.3" ry="116.82"/>
        <ellipse class="cls-1" cx="219.99" cy="542.4" rx="69.26" ry="67.26"/>
      </g>
      <g>
        <circle class="cls-1" cx="594.63" cy="801.68" r="168.49"/>
        <ellipse class="cls-1" cx="594.63" cy="801.68" rx="120.3" ry="116.82"/>
        <ellipse class="cls-1" cx="594.63" cy="801.68" rx="69.26" ry="67.26"/>
      </g>
      <circle class="cls-6" cx="656.03" cy="656.03" r="631.03"/>
    </g>
    <g>
      <g>
        <path class="cls-7" d="M135.04,451.14c63.57-44.93,156.73-48.17,287.13,15.97,158.37,77.9,114.41,202.23,164.56,241.55,17.66,13.85,49.46,40.97,72.52,77.37,22.2,35.04,6.75,56.66-20.16,52.3-24.15-3.91-52.92-45.74-52.92-45.74,0,0,8.22,35.63-1.1,69.34-7.18,25.96-39.47,18.42-47.78-1.01-20.58-36.86-18.49-124.15-16.96-130.75-18.99-24.89-159.55-148.02-298.77-151.82-71.52-1.95-148.13-83.66-86.51-127.21Z"/>
        <path class="cls-2" d="M223.76,444.48c-34.54,38.07-23.55,79.67-13.74,105.17"/>
        <path class="cls-2" d="M282.47,442.13c-35.72,27.5-34.09,91.91-21.92,115.53"/>
        <path class="cls-2" d="M339.01,454.98c-19.38,20.48-33.62,77.57-29.62,119.74"/>
        <path class="cls-2" d="M405.26,481.67c-.9,22.73-27.36,93.6-43.37,111.78"/>
        <path class="cls-2" d="M509.31,578.59c-3.91,34.43-26.94,62.23-54.97,68.95"/>
        <path class="cls-2" d="M460.05,520.11c5.25,39.28-31.17,88.9-47.97,100.13"/>
      </g>
      <g>
        <path class="cls-7" d="M153.29,555.53c70.03-34,162.47-22.06,280.72,62.43,143.6,102.6,80.02,218.14,123.1,265.09,15.18,16.54,42.14,48.46,58.98,88.13,16.2,38.18-2.55,57-28.4,48.33-23.2-7.79-44.78-53.74-44.78-53.74,0,0,2.32,36.49-12.36,68.24-11.3,24.45-41.94,11.76-46.99-8.76-14.32-39.72,1.94-125.5,4.52-131.77-14.69-27.65-133.37-171.99-270.12-198.37-70.25-13.55-132.57-106.62-64.68-139.58Z"/>
        <path class="cls-2" d="M241.92,563.38c-40.27,31.95-36.19,74.78-30.66,101.53"/>
        <path class="cls-2" d="M300.22,570.6c-39.71,21.33-48.57,85.15-40.41,110.43"/>
        <path class="cls-2" d="M353.92,592.47c-22.46,17.06-45.78,71.07-48.69,113.33"/>
        <path class="cls-2" d="M414.96,629.58c-4.58,22.28-42.21,87.91-60.97,103.24"/>
        <path class="cls-2" d="M501.87,742.12c-9.46,33.34-36.7,57.02-65.45,59.1"/>
        <path class="cls-2" d="M462.77,676.41c-1.2,39.61-45.21,82.65-63.61,91"/>
      </g>
      <g>
        <path class="cls-7" d="M126.42,710.78c70.83-32.29,162.96-18.12,279.12,69.2,141.07,106.05,74.72,220.01,116.66,267.99,14.77,16.9,40.96,49.47,56.83,89.53,15.28,38.56-3.93,56.92-29.56,47.63-23-8.35-43.46-54.8-43.46-54.8,0,0,1.43,36.53-14.01,67.92-11.89,24.17-42.21,10.74-46.76-9.89-13.35-40.05,4.97-125.42,7.7-131.62-14.02-27.99-129.17-175.16-265.24-204.84-69.9-15.25-129.95-109.8-61.29-141.1Z"/>
        <path class="cls-2" d="M214.83,720.77c-41.03,30.97-37.98,73.88-33.1,100.76"/>
        <path class="cls-2" d="M272.94,729.4c-40.21,20.36-50.62,83.95-43.06,109.42"/>
        <path class="cls-2" d="M326.1,752.57c-22.86,16.51-47.49,69.94-51.42,112.12"/>
        <path class="cls-2" d="M386.22,791.14c-5.12,22.16-44.32,86.86-63.45,101.74"/>
        <path class="cls-2" d="M470.38,905.75c-10.26,33.1-38.07,56.12-66.86,57.5"/>
        <path class="cls-2" d="M432.88,839.12c-2.16,39.57-47.2,81.53-65.8,89.44"/>
      </g>
    </g>
    <g>
      <path class="cls-3" d="M858.31,881.62s49.71,39.61,57.49,7.66c7.78-31.96-15.57-61.01-36.15-79.59-20.39-18.4-62.52-32.26-101.93-15.57s-59.5,44.06-58,82.1,69.29,5.4,69.29,5.4v99.42h69.29v-99.42Z"/>
      <path class="cls-3" d="M980.77,720.8s35.43,52.77,52.5,24.66c17.07-28.11,3.58-62.86-10.44-86.79-13.88-23.69-49.86-49.63-92.48-45.62s-70.03,24.04-80.08,60.76c-10.05,36.72,64.43,26.07,64.43,26.07l-30.02,94.78,66.06,20.92,30.02-94.78Z"/>
      <path class="cls-3" d="M877.97,1029.13s66.5,11.8,57.57-21.99c-8.93-33.78-45.46-49.08-74.1-55.99-28.36-6.85-74.73,1.56-103.07,37.13-28.34,35.57-33.23,71.3-12.55,106.05,20.68,34.75,67.44-30.08,67.44-30.08l50.39,92.84,64.7-35.12-50.39-92.84Z"/>
      <path class="cls-3" d="M1011.34,1016.07s32.48,54.64,51.07,27.5,7.02-62.57-5.66-87.23-47.06-52.29-89.83-50.62-71.24,20.16-83.29,56.27c-12.05,36.11,62.9,29.56,62.9,29.56l-35.17,92.99,64.81,24.51,35.17-92.99Z"/>
      <path class="cls-3" d="M1074.3,844.69s64.13,19.98,59.56-14.47-38.69-54.13-66.08-64.54c-27.12-10.31-73.93-7.84-106.36,23.7-32.43,31.54-41.73,66.18-25.68,103.07,16.05,36.89,70.32-21.22,70.32-21.22l38.07,97.92,68.25-26.53-38.07-97.92Z"/>
    </g>
    <g>
      <path class="cls-4" d="M1096.04,603.57l-6.5,11.71c-2.09,3.75-7.84,4.54-12.86,1.75l-507.65-281.95c-9.09,6.38-64.96,9.72-57.2-13.74-34.17-42.97-22.86-68.87,34.94-54.68,20.1-13.42,37.9,37.14,36.32,43.11l507.65,281.95c5.02,2.79,7.39,8.09,5.31,11.84Z"/>
      <path class="cls-4" d="M1087.76,565.2l-7.98,10.76c-2.56,3.45-8.37,3.47-12.98.05l-466.37-345.98c-9.85,5.14-65.68,1.13-54.91-21.11-28.26-47.07-13.65-71.27,41.79-49.64,21.68-10.68,32.71,41.78,30.37,47.5l466.37,345.98c4.61,3.42,6.27,8.99,3.71,12.44Z"/>
      <path class="cls-4" d="M1168.25,568.24l-8.92,10.53c-2.86,3.38-8.84,3.01-13.35-.81l-456.46-386.65c-10.47,4.63-67.59-3.2-55.05-25.35-25.92-50.27-9.3-74.17,46.26-48.25,23-9.53,30.85,45.12,28.06,50.84l456.46,386.65c4.51,3.82,5.85,9.66,2.99,13.03Z"/>
    </g>
  </g>
</svg>